<svg width="1197" height="706" viewBox="0 0 1197 706" fill="none" xmlns="http://www.w3.org/2000/svg">
<rect width="1197" height="706" fill="white"/>
<mask id="mask0_123_51" style="mask-type:luminance" maskUnits="userSpaceOnUse" x="137" y="254" width="924" height="198">
<path d="M1060.93 254H137V452H1060.93V254Z" fill="white"/>
</mask>
<g mask="url(#mask0_123_51)">
<path d="M383.893 335.343C377.757 331.205 361.569 329.432 349.815 332.609C349.15 320.936 343.163 311.036 332.075 302.466L328.009 299.732L325.274 303.869C319.952 311.996 317.66 322.857 318.473 332.683C319.065 338.741 321.208 345.538 325.274 350.488C309.973 359.354 295.854 357.359 233.391 357.359H137C136.704 371.47 138.996 398.584 156.219 420.601C158.141 423.039 160.211 425.403 162.502 427.693C176.547 441.731 197.688 452 229.4 452.074C277.743 452.074 319.139 425.994 344.345 362.826C352.624 362.974 374.505 364.304 385.223 343.617C385.519 343.248 387.958 338.15 387.958 338.15L383.893 335.416V335.343ZM199.98 322.487H172.851V349.601H199.98V322.487ZM235.018 322.487H207.889V349.601H235.018V322.487ZM269.982 322.487H242.853V349.601H269.982V322.487ZM305.02 322.487H277.891V349.601H305.02V322.487ZM164.941 322.487H137.813V349.601H164.941V322.487ZM199.98 288.207H172.851V315.321H199.98V288.207ZM235.018 288.207H207.889V315.321H235.018V288.207ZM269.982 288.207H242.853V315.321H269.982V288.207ZM269.982 254H242.853V281.114H269.982V254Z" fill="#2560FF"/>
<path d="M468.975 423.999C444.433 423.999 424.475 404.864 424.475 373.391C424.475 341.918 444.581 322.931 469.123 322.931C493.664 322.931 499.134 335.343 500.834 338.298V283.922H531.215V421.931H501.204V407.672C499.356 410.849 489.598 423.999 468.901 423.999H468.975ZM478.363 348.789C464.318 348.789 455.3 359.28 455.3 373.317C455.3 387.354 464.318 397.846 478.363 397.846C492.407 397.846 501.278 387.502 501.278 373.317C501.278 359.132 492.259 348.789 478.363 348.789Z" fill="#2560FF"/>
<path d="M648.896 373.391C648.896 403.387 625.981 424.369 595.6 424.369C565.219 424.369 542.303 403.387 542.303 373.391C542.303 343.396 564.997 322.34 595.6 322.34C626.203 322.34 648.896 343.174 648.896 373.391ZM618.293 373.391C618.293 359.502 609.275 348.863 595.6 348.863C581.924 348.863 572.684 359.575 572.684 373.391C572.684 387.207 581.851 397.919 595.6 397.919C609.349 397.919 618.293 387.207 618.293 373.391Z" fill="#2560FF"/>
<path d="M705.593 348.789C693.026 348.789 684.747 359.502 684.747 373.317C684.747 387.133 693.026 398.067 705.74 398.067C718.455 398.067 723.038 390.384 724.147 388.167H753.419C752.31 401.687 739.374 424.369 705.001 424.369C670.628 424.369 654.144 404.273 654.144 373.391C654.144 342.509 676.32 322.34 704.632 322.34C732.943 322.34 751.94 344.652 753.419 358.763H723.777C722.299 356.103 717.42 348.863 705.593 348.863V348.789Z" fill="#2560FF"/>
<path d="M763.324 283.922H793.705V362.9L832.513 324.851H870.804L824.308 369.697L873.243 422.004H833.622L793.631 378.71V422.004H763.25V283.922H763.324Z" fill="#2560FF"/>
<path d="M969.783 373.908V379.154H895.863C897.341 391.344 906.581 400.505 919.887 400.505C933.192 400.505 937.332 395.038 938.662 393.043H968.896C967.417 404.642 953.52 424.369 919.961 424.369C886.401 424.369 865.925 403.017 865.925 373.317C865.925 343.617 887.288 322.266 917.891 322.266C948.494 322.266 969.857 342.14 969.857 373.834L969.783 373.908ZM896.38 360.61H939.18C936.593 350.488 928.683 344.504 917.817 344.504C906.951 344.504 899.041 350.71 896.454 360.61H896.38Z" fill="#2560FF"/>
<path d="M1010.66 421.931H980.279V324.778H1010.66V339.997C1012.73 335.49 1019.83 324.63 1040.08 324.63H1060.93V354.625H1034.31C1017.24 354.625 1010.66 360.979 1010.66 374.499V421.931Z" fill="#2560FF"/>
</g>
</svg>
