<svg width="1197" height="706" viewBox="0 0 1197 706" fill="none" xmlns="http://www.w3.org/2000/svg">
<rect width="1197" height="706" fill="white"/>
<path fill-rule="evenodd" clip-rule="evenodd" d="M338.172 392.008L358 397.023V418.465L246.5 446.666L135 418.465V397.023L154.828 392.008L246.5 415.194L338.172 392.008Z" fill="black"/>
<path fill-rule="evenodd" clip-rule="evenodd" d="M338.172 355.516L358 360.531V381.973L246.5 410.174L135 381.973V360.531L154.828 355.516L246.5 378.702L338.172 355.516Z" fill="black"/>
<path fill-rule="evenodd" clip-rule="evenodd" d="M338.172 319.018L358 324.033V345.475L246.5 373.676L135 345.475V324.033L154.828 319.018L246.5 342.204L338.172 319.018Z" fill="black"/>
<path fill-rule="evenodd" clip-rule="evenodd" d="M135 287.535L246.5 259.334L358 287.535V308.977L246.5 337.178L135 308.977V287.535Z" fill="black"/>
<path d="M400.56 410.5V293.7H424.56V338.5H451.44V293.7H475.44V410.5H451.44V360.9H424.56V410.5H400.56ZM533.938 412.1C526.151 412.1 519.378 410.66 513.618 407.78C507.858 404.793 503.378 400.687 500.178 395.46C497.084 390.127 495.538 383.94 495.538 376.9V356.1C495.538 349.06 497.084 342.927 500.178 337.7C503.378 332.367 507.858 328.26 513.618 325.38C519.378 322.393 526.151 320.9 533.938 320.9C541.831 320.9 548.604 322.393 554.258 325.38C560.018 328.26 564.444 332.367 567.538 337.7C570.738 342.927 572.338 349.06 572.338 356.1V376.9C572.338 383.94 570.738 390.127 567.538 395.46C564.444 400.687 560.018 404.793 554.258 407.78C548.604 410.66 541.831 412.1 533.938 412.1ZM533.938 391.3C538.631 391.3 542.204 390.073 544.658 387.62C547.111 385.06 548.338 381.487 548.338 376.9V356.1C548.338 351.407 547.111 347.833 544.658 345.38C542.204 342.927 538.631 341.7 533.938 341.7C529.351 341.7 525.778 342.927 523.218 345.38C520.764 347.833 519.538 351.407 519.538 356.1V376.9C519.538 381.487 520.764 385.06 523.218 387.62C525.778 390.073 529.351 391.3 533.938 391.3ZM588.595 410.5V322.5H607.475V335.3H611.315L608.275 337.54C608.275 332.527 609.715 328.527 612.595 325.54C615.475 322.447 619.048 320.9 623.315 320.9C627.902 320.9 631.475 322.873 634.035 326.82C636.595 330.767 637.875 335.993 637.875 342.5L634.995 335.3H639.475L638.035 337.54C638.035 332.527 639.422 328.527 642.195 325.54C644.968 322.447 648.702 320.9 653.395 320.9C658.728 320.9 663.048 322.927 666.355 326.98C669.662 330.927 671.315 336.367 671.315 343.3V410.5H650.675V344.9C650.675 342.447 650.142 340.58 649.075 339.3C648.008 337.913 646.462 337.22 644.435 337.22C642.408 337.22 640.862 337.913 639.795 339.3C638.728 340.58 638.195 342.447 638.195 344.9V410.5H621.715V344.9C621.715 342.447 621.182 340.58 620.115 339.3C619.048 337.913 617.502 337.22 615.475 337.22C613.448 337.22 611.902 337.913 610.835 339.3C609.768 340.58 609.235 342.447 609.235 344.9V410.5H588.595ZM725.973 412.1C718.186 412.1 711.359 410.66 705.493 407.78C699.733 404.793 695.253 400.687 692.053 395.46C688.959 390.127 687.413 383.94 687.413 376.9V356.1C687.413 349.06 688.959 342.927 692.053 337.7C695.253 332.367 699.733 328.26 705.493 325.38C711.359 322.393 718.186 320.9 725.973 320.9C733.759 320.9 740.479 322.393 746.133 325.38C751.893 328.26 756.319 332.367 759.413 337.7C762.613 342.927 764.213 349.06 764.213 356.1V372.1H710.293V376.9C710.293 382.447 711.626 386.66 714.293 389.54C716.959 392.313 720.959 393.7 726.293 393.7C730.026 393.7 733.013 393.06 735.253 391.78C737.599 390.5 739.146 388.74 739.893 386.5H763.413C761.493 394.18 757.119 400.367 750.293 405.06C743.573 409.753 735.466 412.1 725.973 412.1ZM741.333 359.78V355.78C741.333 350.34 740.053 346.18 737.493 343.3C735.039 340.42 731.199 338.98 725.973 338.98C720.746 338.98 716.799 340.473 714.133 343.46C711.573 346.447 710.293 350.66 710.293 356.1V358.5L742.933 358.18L741.333 359.78ZM836.15 410.5C829.963 410.5 824.523 409.22 819.83 406.66C815.137 403.993 811.457 400.313 808.79 395.62C806.23 390.927 804.95 385.487 804.95 379.3V315.3H777.75V293.7H828.95V379.3C828.95 382.18 829.803 384.527 831.51 386.34C833.323 388.047 835.67 388.9 838.55 388.9H864.15V410.5H836.15ZM906.328 412.1C897.474 412.1 890.434 409.7 885.208 404.9C880.088 400.1 877.528 393.593 877.528 385.38C877.528 376.527 880.568 369.753 886.648 365.06C892.834 360.26 901.688 357.86 913.208 357.86H931.448V351.3C931.448 347.887 930.221 345.167 927.768 343.14C925.421 341.113 922.221 340.1 918.168 340.1C914.434 340.1 911.341 340.953 908.888 342.66C906.434 344.367 904.941 346.713 904.408 349.7H881.208C882.168 340.847 886.008 333.86 892.728 328.74C899.554 323.513 908.301 320.9 918.968 320.9C930.168 320.9 939.021 323.673 945.528 329.22C952.141 334.66 955.448 342.02 955.448 351.3V410.5H932.248V396.1H928.408L932.408 390.5C932.408 397.113 930.008 402.393 925.208 406.34C920.514 410.18 914.221 412.1 906.328 412.1ZM915.288 394.5C919.981 394.5 923.821 393.273 926.808 390.82C929.901 388.26 931.448 384.953 931.448 380.9V371.46H913.688C910.061 371.46 907.128 372.527 904.888 374.66C902.648 376.687 901.528 379.407 901.528 382.82C901.528 386.447 902.754 389.327 905.208 391.46C907.661 393.487 911.021 394.5 915.288 394.5ZM1022.75 412.1C1015.49 412.1 1009.79 410.02 1005.62 405.86C1001.47 401.593 999.385 395.673 999.385 388.1L1004.99 393.7H999.385V410.5H976.185V293.7H1000.19V317.7L999.385 339.3H1004.99L999.385 344.9C999.385 337.327 1001.47 331.46 1005.62 327.3C1009.79 323.033 1015.49 320.9 1022.75 320.9C1031.6 320.9 1038.69 324.047 1044.03 330.34C1049.36 336.527 1052.03 344.847 1052.03 355.3V377.7C1052.03 388.26 1049.36 396.633 1044.03 402.82C1038.69 409.007 1031.6 412.1 1022.75 412.1ZM1014.11 391.3C1018.59 391.3 1022 390.073 1024.35 387.62C1026.8 385.06 1028.03 381.487 1028.03 376.9V356.1C1028.03 351.513 1026.8 347.993 1024.35 345.54C1022 342.98 1018.59 341.7 1014.11 341.7C1009.73 341.7 1006.32 342.98 1003.87 345.54C1001.41 347.993 1000.19 351.513 1000.19 356.1V376.9C1000.19 381.487 1001.41 385.06 1003.87 387.62C1006.32 390.073 1009.73 391.3 1014.11 391.3Z" fill="black"/>
</svg>
