<svg width="580" height="291" viewBox="0 0 580 291" fill="none" xmlns="http://www.w3.org/2000/svg">
<rect width="580" height="291" fill="white"/>
<path fill-rule="evenodd" clip-rule="evenodd" d="M106.231 180.579C97.248 184.511 86.1167 183.545 78.0456 175.494C62.1932 159.681 73.7437 132.092 96.0658 132.092H105.353C105.353 137.106 109.285 142.465 115.925 142.465C121.555 142.465 126.278 137.785 126.278 132.092H135.769C145.219 132.092 152.613 121.412 148.866 112.395C148.384 111.237 145.266 103.733 135.769 103.733C128.571 103.733 121.555 110.731 121.555 117.912L121.557 123.248C119.522 121.97 117.803 121.613 115.925 121.592C114.048 121.57 112.197 121.974 110.294 123.116L110.28 117.913C110.28 95.6455 137.938 84.1234 153.789 99.9368C169.642 115.75 158.091 143.339 135.769 143.339H121.555V180.579H110.28L110.294 143.339H96.0658C83.6175 143.339 77.1767 158.725 86.0162 167.543C92.0155 173.527 101.046 172.488 106.231 167.324V180.579Z" fill="black"/>
<path d="M110.294 180.58V144.102H121.557V180.58H110.294ZM115.852 138.412C114.048 138.412 112.525 137.792 111.281 136.551C110.038 135.311 109.416 133.791 109.416 131.992C109.416 130.192 110.038 128.685 111.281 127.468C112.525 126.253 114.048 125.644 115.852 125.644C117.607 125.644 119.107 126.253 120.35 127.468C121.593 128.685 122.215 130.192 122.215 131.992C122.215 133.791 121.593 135.311 120.35 136.551C119.107 137.792 117.607 138.412 115.852 138.412Z" fill="black"/>
<path d="M141.303 180.58H130.041V144.102H140.645L141.377 147.896C142.498 146.34 144.046 145.124 146.021 144.248C147.995 143.373 150.177 142.935 152.566 142.935C156.906 142.935 160.282 144.261 162.696 146.911C165.109 149.562 166.316 153.271 166.316 158.037V180.58H155.053V160.736C155.053 158.45 154.468 156.614 153.298 155.228C152.127 153.842 150.568 153.149 148.617 153.149C146.374 153.149 144.594 153.818 143.278 155.155C141.962 156.493 141.303 158.305 141.303 160.59V180.58Z" fill="black"/>
<path d="M170.923 144.102H212.025V153.44H170.923V144.102ZM195.204 126.009V135.639H192.06C190.109 135.639 188.818 136.174 188.183 137.244C187.55 138.315 187.233 139.628 187.233 141.184V180.58H175.97V141.184C175.97 137.536 176.555 134.569 177.725 132.283C178.895 129.998 180.553 128.307 182.698 127.213C184.844 126.119 187.33 125.571 190.158 125.571C190.938 125.571 191.755 125.608 192.608 125.681C193.462 125.754 194.327 125.863 195.204 126.009ZM200.689 180.58V144.102H212.025V180.58H200.689ZM206.394 138.412C204.59 138.412 203.066 137.791 201.823 136.551C200.58 135.311 199.958 133.791 199.958 131.991C199.958 130.192 200.58 128.685 201.823 127.468C203.066 126.253 204.59 125.644 206.394 125.644C208.149 125.644 209.649 126.253 210.892 127.468C212.135 128.685 212.757 130.192 212.757 131.991C212.757 133.791 212.135 135.311 210.892 136.551C209.649 137.791 208.149 138.412 206.394 138.412Z" fill="black"/>
<path d="M231.845 180.58H220.582V144.102H231.187L231.918 147.896C233.04 146.34 234.588 145.124 236.562 144.248C238.537 143.373 240.719 142.935 243.108 142.935C247.448 142.935 250.824 144.261 253.237 146.911C255.651 149.562 256.857 153.271 256.857 158.037V180.58H245.595V160.736C245.595 158.45 245.01 156.614 243.839 155.228C242.669 153.842 241.109 153.149 239.159 153.149C236.916 153.149 235.136 153.818 233.82 155.155C232.503 156.493 231.845 158.305 231.845 160.59V180.58Z" fill="black"/>
<path d="M264.903 180.58V144.102H276.165V180.58H264.903ZM270.461 138.412C268.657 138.412 267.133 137.792 265.89 136.551C264.647 135.311 264.025 133.791 264.025 131.992C264.025 130.192 264.647 128.685 265.89 127.468C267.133 126.253 268.657 125.644 270.461 125.644C272.216 125.644 273.715 126.253 274.959 127.468C276.202 128.685 276.824 130.192 276.824 131.992C276.824 133.791 276.202 135.311 274.959 136.551C273.715 137.792 272.216 138.412 270.461 138.412Z" fill="black"/>
<path d="M281.212 144.102H306.37V153.44H281.212V144.102ZM299.422 180.58H288.16V132.794H299.422V180.58Z" fill="black"/>
<path d="M311.417 180.58V144.102H322.68V180.58H311.417ZM316.975 138.412C315.171 138.412 313.647 137.792 312.404 136.551C311.161 135.311 310.539 133.791 310.539 131.992C310.539 130.192 311.161 128.685 312.404 127.468C313.647 126.253 315.171 125.644 316.975 125.644C318.73 125.644 320.23 126.253 321.473 127.468C322.716 128.685 323.338 130.192 323.338 131.992C323.338 133.791 322.716 135.311 321.473 136.551C320.23 137.792 318.73 138.412 316.975 138.412Z" fill="black"/>
<path d="M341.549 180.58L327.287 144.102H339.428L343.889 156.869C344.816 159.545 345.608 161.94 346.266 164.055C346.924 166.171 347.326 167.643 347.473 168.469C347.716 167.399 348.192 165.794 348.899 163.654C349.606 161.515 350.422 159.253 351.349 156.869L356.249 144.102H367.95L352.665 180.58H341.549Z" fill="black"/>
<path d="M387.697 181.528C384.04 181.528 380.786 180.702 377.933 179.048C375.081 177.394 372.838 175.121 371.205 172.227C369.572 169.333 368.755 166.013 368.755 162.268C368.755 158.474 369.547 155.131 371.132 152.237C372.717 149.343 374.923 147.069 377.751 145.415C380.579 143.762 383.821 142.935 387.478 142.935C391.33 142.935 394.645 143.728 397.424 145.314C400.203 146.9 402.349 149.145 403.86 152.049C405.372 154.952 406.127 158.404 406.127 162.405V165.259H374.752V158.401H394.937C394.937 156.456 394.279 154.912 392.963 153.769C391.646 152.626 389.843 152.054 387.551 152.054C385.649 152.054 384.101 152.419 382.907 153.149C381.712 153.878 380.822 155.009 380.237 156.541C379.652 158.073 379.36 160.031 379.36 162.414C379.36 165.819 380.054 168.336 381.444 169.965C382.833 171.594 384.991 172.409 387.916 172.409C390.062 172.409 391.842 172.044 393.255 171.315C394.669 170.585 395.572 169.564 395.961 168.25H406.273C405.64 172.288 403.641 175.51 400.276 177.917C396.912 180.325 392.719 181.528 387.697 181.528Z" fill="black"/>
<path d="M417.609 181.528C415.757 181.528 414.172 180.884 412.856 179.595C411.539 178.306 410.881 176.762 410.881 174.962C410.881 173.114 411.539 171.546 412.856 170.257C414.172 168.968 415.757 168.323 417.609 168.323C419.414 168.323 420.986 168.968 422.327 170.257C423.668 171.546 424.338 173.114 424.338 174.962C424.338 176.762 423.668 178.306 422.327 179.595C420.986 180.884 419.414 181.528 417.609 181.528Z" fill="black"/>
<path d="M428.945 162.195C428.945 158.45 429.75 155.131 431.359 152.237C432.968 149.343 435.174 147.069 437.978 145.415C440.781 143.762 444.011 142.935 447.668 142.935C453.08 142.935 457.468 144.321 460.832 147.093C464.197 149.866 466.05 153.635 466.391 158.401H455.055C454.665 156.554 453.897 155.191 452.751 154.316C451.605 153.44 450.057 153.003 448.107 153.003C446.547 153.003 445.169 153.38 443.975 154.134C442.78 154.888 441.866 155.945 441.232 157.307C440.598 158.669 440.281 160.298 440.281 162.195C440.281 164.141 440.586 165.806 441.196 167.193C441.805 168.579 442.683 169.637 443.828 170.366C444.975 171.096 446.352 171.46 447.961 171.46C449.96 171.46 451.557 171.011 452.751 170.111C453.946 169.211 454.714 167.862 455.055 166.062H466.391C466.147 169.126 465.209 171.813 463.575 174.123C461.942 176.434 459.784 178.245 457.102 179.559C454.421 180.872 451.374 181.528 447.961 181.528C444.109 181.528 440.757 180.726 437.904 179.121C435.052 177.516 432.846 175.267 431.286 172.372C429.726 169.479 428.945 166.086 428.945 162.195Z" fill="black"/>
<path d="M470.56 162.195C470.56 158.45 471.364 155.131 472.973 152.237C474.582 149.343 476.789 147.069 479.592 145.415C482.396 143.762 485.625 142.935 489.282 142.935C494.694 142.935 499.082 144.321 502.447 147.093C505.811 149.866 507.664 153.635 508.005 158.401H496.669C496.279 156.554 495.511 155.191 494.365 154.316C493.22 153.44 491.672 153.003 489.721 153.003C488.161 153.003 486.784 153.38 485.589 154.134C484.395 154.888 483.481 155.945 482.846 157.307C482.213 158.669 481.896 160.298 481.896 162.195C481.896 164.141 482.201 165.806 482.81 167.193C483.419 168.579 484.297 169.637 485.443 170.366C486.589 171.096 487.966 171.46 489.575 171.46C491.574 171.46 493.171 171.011 494.365 170.111C495.56 169.211 496.328 167.862 496.669 166.062H508.005C507.762 169.126 506.823 171.813 505.189 174.123C503.556 176.434 501.399 178.245 498.717 179.559C496.035 180.872 492.988 181.528 489.575 181.528C485.723 181.528 482.371 180.726 479.519 179.121C476.666 177.516 474.46 175.267 472.9 172.372C471.34 169.479 470.56 166.086 470.56 162.195Z" fill="black"/>
</svg>
