<svg width="1197" height="706" viewBox="0 0 1197 706" fill="none" xmlns="http://www.w3.org/2000/svg">
<rect width="1197" height="706" fill="white"/>
<path fill-rule="evenodd" clip-rule="evenodd" d="M220.162 440.7C201.593 448.844 178.583 446.844 161.899 430.167C129.131 397.411 153.007 340.261 199.149 340.261H218.348C218.348 350.648 226.476 361.749 240.201 361.749C251.839 361.749 261.602 352.054 261.602 340.261H281.221C300.756 340.261 316.038 318.14 308.293 299.462C307.298 297.063 300.853 281.519 281.221 281.519C266.341 281.519 251.839 296.015 251.839 310.889L251.842 321.942C247.635 319.295 244.082 318.556 240.201 318.511C236.322 318.466 232.495 319.303 228.561 321.669L228.531 310.891C228.531 264.766 285.703 240.898 318.471 273.655C351.239 306.41 327.363 363.56 281.221 363.56H251.839V440.7H228.531L228.561 363.56H199.149C173.417 363.56 160.103 395.43 178.376 413.697C190.777 426.092 209.444 423.939 220.162 413.242V440.7Z" fill="black"/>
<path d="M228.561 440.701V365.14H251.842V440.701H228.561ZM240.05 353.353C236.322 353.353 233.172 352.068 230.602 349.499C228.031 346.93 226.746 343.782 226.746 340.054C226.746 336.327 228.031 333.204 230.602 330.684C233.172 328.166 236.322 326.906 240.05 326.906C243.679 326.906 246.778 328.166 249.348 330.684C251.918 333.204 253.203 336.327 253.203 340.054C253.203 343.782 251.918 346.93 249.348 349.499C246.778 352.068 243.679 353.353 240.05 353.353Z" fill="black"/>
<path d="M292.661 440.701H269.379V365.14H291.3L292.812 372.998C295.13 369.775 298.33 367.256 302.412 365.442C306.494 363.629 311.004 362.722 315.942 362.722C324.913 362.722 331.892 365.468 336.881 370.958C341.87 376.449 344.364 384.132 344.364 394.004V440.701H321.082V399.596C321.082 394.862 319.873 391.058 317.454 388.186C315.035 385.315 311.811 383.879 307.779 383.879C303.143 383.879 299.464 385.265 296.743 388.035C294.021 390.806 292.661 394.559 292.661 399.294V440.701Z" fill="black"/>
<path d="M353.888 365.14H438.851V384.484H353.888V365.14ZM404.08 327.662V347.61H397.579C393.548 347.61 390.878 348.719 389.567 350.935C388.257 353.152 387.601 355.872 387.601 359.095V440.701H364.32V359.095C364.32 351.539 365.529 345.394 367.948 340.658C370.367 335.924 373.794 332.422 378.228 330.155C382.663 327.889 387.803 326.755 393.649 326.755C395.262 326.755 396.95 326.831 398.713 326.982C400.478 327.133 402.266 327.36 404.08 327.662ZM415.418 440.701V365.14H438.851V440.701H415.418ZM427.21 353.353C423.482 353.353 420.332 352.068 417.762 349.499C415.192 346.93 413.907 343.782 413.907 340.054C413.907 336.327 415.192 333.204 417.762 330.684C420.332 328.166 423.482 326.906 427.21 326.906C430.839 326.906 433.938 328.166 436.508 330.684C439.078 333.204 440.363 336.327 440.363 340.054C440.363 343.782 439.078 346.93 436.508 349.499C433.938 352.068 430.839 353.353 427.21 353.353Z" fill="black"/>
<path d="M479.821 440.701H456.539V365.14H478.46L479.972 372.998C482.291 369.775 485.49 367.256 489.572 365.442C493.654 363.629 498.164 362.722 503.103 362.722C512.073 362.722 519.052 365.468 524.041 370.958C529.03 376.449 531.524 384.132 531.524 394.004V440.701H508.243V399.596C508.243 394.862 507.033 391.058 504.614 388.186C502.196 385.315 498.971 383.879 494.939 383.879C490.303 383.879 486.624 385.265 483.903 388.035C481.182 390.806 479.821 394.559 479.821 399.294V440.701Z" fill="black"/>
<path d="M548.154 440.701V365.14H571.436V440.701H548.154ZM559.644 353.353C555.915 353.353 552.765 352.068 550.195 349.499C547.625 346.93 546.34 343.782 546.34 340.054C546.34 336.327 547.625 333.204 550.195 330.684C552.765 328.166 555.915 326.906 559.644 326.906C563.272 326.906 566.371 328.166 568.941 330.684C571.511 333.204 572.796 336.327 572.796 340.054C572.796 343.782 571.511 346.93 568.941 349.499C566.371 352.068 563.272 353.353 559.644 353.353Z" fill="black"/>
<path d="M581.867 365.14H633.873V384.484H581.867V365.14ZM619.511 440.701H596.229V341.716H619.511V440.701Z" fill="black"/>
<path d="M644.304 440.701V365.14H667.586V440.701H644.304ZM655.794 353.353C652.065 353.353 648.915 352.068 646.345 349.499C643.775 346.93 642.49 343.782 642.49 340.054C642.49 336.327 643.775 333.204 646.345 330.684C648.915 328.166 652.065 326.906 655.794 326.906C659.422 326.906 662.521 328.166 665.091 330.684C667.661 333.204 668.946 336.327 668.946 340.054C668.946 343.782 667.661 346.93 665.091 349.499C662.521 352.068 659.422 353.353 655.794 353.353Z" fill="black"/>
<path d="M706.59 440.701L677.11 365.14H702.206L711.428 391.587C713.344 397.128 714.981 402.09 716.341 406.472C717.702 410.855 718.533 413.903 718.836 415.615C719.34 413.399 720.323 410.074 721.784 405.641C723.246 401.209 724.934 396.524 726.848 391.587L736.977 365.14H761.166L729.569 440.701H706.59Z" fill="black"/>
<path d="M801.984 442.666C794.425 442.666 787.698 440.954 781.802 437.528C775.906 434.103 771.27 429.393 767.893 423.398C764.518 417.404 762.829 410.528 762.829 402.77C762.829 394.911 764.467 387.986 767.742 381.99C771.019 375.996 775.579 371.287 781.424 367.86C787.27 364.435 793.972 362.722 801.531 362.722C809.494 362.722 816.346 364.365 822.091 367.651C827.836 370.936 832.271 375.586 835.395 381.601C838.52 387.614 840.082 394.766 840.082 403.054V408.966H775.226V394.76H816.951C816.951 390.731 815.59 387.532 812.869 385.164C810.148 382.797 806.419 381.612 801.682 381.612C797.751 381.612 794.552 382.368 792.082 383.879C789.614 385.39 787.773 387.733 786.564 390.906C785.355 394.08 784.75 398.136 784.75 403.072C784.75 410.125 786.186 415.339 789.059 418.713C791.931 422.088 796.391 423.776 802.438 423.776C806.873 423.776 810.552 423.02 813.474 421.509C816.397 419.997 818.262 417.882 819.068 415.162H840.384C839.074 423.524 834.942 430.198 827.987 435.185C821.033 440.172 812.366 442.666 801.984 442.666Z" fill="black"/>
<path d="M863.817 442.666C859.988 442.666 856.711 441.332 853.99 438.661C851.269 435.992 849.908 432.793 849.908 429.065C849.908 425.237 851.269 421.988 853.99 419.317C856.711 416.648 859.988 415.313 863.817 415.313C867.547 415.313 870.797 416.648 873.568 419.317C876.34 421.988 877.725 425.237 877.725 429.065C877.725 432.793 876.34 435.992 873.568 438.661C870.797 441.332 867.547 442.666 863.817 442.666Z" fill="black"/>
<path d="M887.25 402.618C887.25 394.862 888.913 387.986 892.239 381.99C895.565 375.996 900.126 371.287 905.92 367.86C911.716 364.435 918.393 362.722 925.952 362.722C937.139 362.722 946.21 365.593 953.164 371.336C960.118 377.079 963.948 384.888 964.653 394.76H941.221C940.415 390.932 938.828 388.111 936.459 386.297C934.09 384.484 930.891 383.577 926.859 383.577C923.634 383.577 920.787 384.359 918.317 385.919C915.848 387.481 913.959 389.673 912.648 392.493C911.338 395.315 910.682 398.689 910.682 402.618C910.682 406.649 911.313 410.099 912.572 412.97C913.832 415.842 915.647 418.033 918.015 419.544C920.384 421.055 923.23 421.811 926.556 421.811C930.689 421.811 933.99 420.879 936.459 419.015C938.928 417.152 940.516 414.356 941.221 410.628H964.653C964.15 416.975 962.21 422.542 958.833 427.327C955.457 432.113 950.998 435.865 945.454 438.586C939.911 441.306 933.612 442.666 926.556 442.666C918.595 442.666 911.665 441.003 905.769 437.679C899.873 434.354 895.313 429.695 892.087 423.7C888.863 417.706 887.25 410.679 887.25 402.618Z" fill="black"/>
<path d="M973.271 402.618C973.271 394.862 974.934 387.986 978.26 381.99C981.586 375.996 986.147 371.287 991.941 367.86C997.737 364.435 1004.41 362.722 1011.97 362.722C1023.16 362.722 1032.23 365.593 1039.19 371.336C1046.14 377.079 1049.97 384.888 1050.67 394.76H1027.24C1026.44 390.932 1024.85 388.111 1022.48 386.297C1020.11 384.484 1016.91 383.577 1012.88 383.577C1009.66 383.577 1006.81 384.359 1004.34 385.919C1001.87 387.481 999.98 389.673 998.669 392.493C997.359 395.315 996.704 398.689 996.704 402.618C996.704 406.649 997.334 410.099 998.593 412.97C999.854 415.842 1001.67 418.033 1004.04 419.544C1006.4 421.055 1009.25 421.811 1012.58 421.811C1016.71 421.811 1020.01 420.879 1022.48 419.015C1024.95 417.152 1026.54 414.356 1027.24 410.628H1050.67C1050.17 416.975 1048.23 422.542 1044.85 427.327C1041.48 432.113 1037.02 435.865 1031.47 438.586C1025.93 441.306 1019.63 442.666 1012.58 442.666C1004.62 442.666 997.686 441.003 991.79 437.679C985.894 434.354 981.334 429.695 978.109 423.7C974.884 417.706 973.271 410.679 973.271 402.618Z" fill="black"/>
</svg>
