<?xml version="1.0" encoding="UTF-8" standalone="no"?><!DOCTYPE svg PUBLIC "-//W3C//DTD SVG 1.1//EN" "http://www.w3.org/Graphics/SVG/1.1/DTD/svg11.dtd"><svg width="100%" height="100%" viewBox="0 0 199 199" version="1.1" xmlns="http://www.w3.org/2000/svg" xmlns:xlink="http://www.w3.org/1999/xlink" xml:space="preserve" xmlns:serif="http://www.serif.com/" style="fill-rule:evenodd;clip-rule:evenodd;stroke-linejoin:round;stroke-miterlimit:2;"><rect id="Glyph-White" serif:id="Glyph White" x="0.275" y="0.638" width="197.902" height="197.902" style="fill:#fff;fill-opacity:0;"/><path d="M88.126,88.489l-0,-27.987c-0,-27.699 22.488,-50.187 50.187,-50.187c27.699,-0 50.187,22.488 50.187,50.187c0,27.699 -22.488,50.187 -50.187,50.187l-27.987,0l-0,27.988c-0,27.699 -22.488,50.187 -50.188,50.187c-27.699,0 -50.187,-22.488 -50.187,-50.187c0,-27.699 22.488,-50.188 50.187,-50.188l27.988,0Zm-0,22.2l-27.988,0c-15.446,0 -27.987,12.541 -27.987,27.988c0,15.446 12.541,27.987 27.987,27.987c15.447,0 27.988,-12.541 27.988,-27.987l-0,-27.988Zm22.2,-22.2l27.987,0c15.447,0 27.987,-12.54 27.987,-27.987c0,-15.446 -12.54,-27.987 -27.987,-27.987c-15.447,-0 -27.987,12.541 -27.987,27.987l-0,27.987Z" style="fill:#fff;"/></svg>